<svg width="320" height="62" viewBox="0 0 320 62" fill="none" xmlns="http://www.w3.org/2000/svg">
<path d="M30.4062 21.0312V28.3438H6.65625V21.0312H30.4062ZM9.4375 2.5V48H0.0625V2.5H9.4375ZM37.0938 2.5V48H27.75V2.5H37.0938ZM62.9375 40.375V25.3125C62.9375 24.2292 62.7604 23.3021 62.4062 22.5312C62.0521 21.7396 61.5 21.125 60.75 20.6875C60.0208 20.25 59.0729 20.0312 57.9062 20.0312C56.9062 20.0312 56.0417 20.2083 55.3125 20.5625C54.5833 20.8958 54.0208 21.3854 53.625 22.0312C53.2292 22.6562 53.0312 23.3958 53.0312 24.25H44.0312C44.0312 22.8125 44.3646 21.4479 45.0312 20.1562C45.6979 18.8646 46.6667 17.7292 47.9375 16.75C49.2083 15.75 50.7188 14.9688 52.4688 14.4062C54.2396 13.8438 56.2188 13.5625 58.4062 13.5625C61.0312 13.5625 63.3646 14 65.4062 14.875C67.4479 15.75 69.0521 17.0625 70.2188 18.8125C71.4062 20.5625 72 22.75 72 25.375V39.8438C72 41.6979 72.1146 43.2188 72.3438 44.4062C72.5729 45.5729 72.9062 46.5938 73.3438 47.4688V48H64.25C63.8125 47.0833 63.4792 45.9375 63.25 44.5625C63.0417 43.1667 62.9375 41.7708 62.9375 40.375ZM64.125 27.4062L64.1875 32.5H59.1562C57.9688 32.5 56.9375 32.6354 56.0625 32.9062C55.1875 33.1771 54.4688 33.5625 53.9062 34.0625C53.3438 34.5417 52.9271 35.1042 52.6562 35.75C52.4062 36.3958 52.2812 37.1042 52.2812 37.875C52.2812 38.6458 52.4583 39.3438 52.8125 39.9688C53.1667 40.5729 53.6771 41.0521 54.3438 41.4062C55.0104 41.7396 55.7917 41.9062 56.6875 41.9062C58.0417 41.9062 59.2188 41.6354 60.2188 41.0938C61.2188 40.5521 61.9896 39.8854 62.5312 39.0938C63.0938 38.3021 63.3854 37.5521 63.4062 36.8438L65.7812 40.6562C65.4479 41.5104 64.9896 42.3958 64.4062 43.3125C63.8438 44.2292 63.125 45.0938 62.25 45.9062C61.375 46.6979 60.3229 47.3542 59.0938 47.875C57.8646 48.375 56.4062 48.625 54.7188 48.625C52.5729 48.625 50.625 48.1979 48.875 47.3438C47.1458 46.4688 45.7708 45.2708 44.75 43.75C43.75 42.2083 43.25 40.4583 43.25 38.5C43.25 36.7292 43.5833 35.1562 44.25 33.7812C44.9167 32.4062 45.8958 31.25 47.1875 30.3125C48.5 29.3542 50.1354 28.6354 52.0938 28.1562C54.0521 27.6562 56.3229 27.4062 58.9062 27.4062H64.125ZM87.9375 21.1875V48H78.9062V14.1875H87.375L87.9375 21.1875ZM86.6875 29.9062H84.1875C84.1875 27.5521 84.4688 25.3854 85.0312 23.4062C85.6146 21.4062 86.4583 19.6771 87.5625 18.2188C88.6875 16.7396 90.0729 15.5938 91.7188 14.7812C93.3646 13.9688 95.2708 13.5625 97.4375 13.5625C98.9375 13.5625 100.312 13.7917 101.562 14.25C102.812 14.6875 103.885 15.3854 104.781 16.3438C105.698 17.2812 106.406 18.5104 106.906 20.0312C107.406 21.5312 107.656 23.3333 107.656 25.4375V48H98.6562V26.4375C98.6562 24.8958 98.4479 23.7083 98.0312 22.875C97.6146 22.0417 97.0208 21.4583 96.25 21.125C95.5 20.7917 94.5938 20.625 93.5312 20.625C92.3646 20.625 91.3438 20.8646 90.4688 21.3438C89.6146 21.8229 88.9062 22.4896 88.3438 23.3438C87.7812 24.1771 87.3646 25.1562 87.0938 26.2812C86.8229 27.4062 86.6875 28.6146 86.6875 29.9062ZM106.812 28.875L103.594 29.2812C103.594 27.0729 103.865 25.0208 104.406 23.125C104.969 21.2292 105.792 19.5625 106.875 18.125C107.979 16.6875 109.344 15.5729 110.969 14.7812C112.594 13.9688 114.469 13.5625 116.594 13.5625C118.219 13.5625 119.698 13.8021 121.031 14.2812C122.365 14.7396 123.5 15.4792 124.438 16.5C125.396 17.5 126.125 18.8125 126.625 20.4375C127.146 22.0625 127.406 24.0521 127.406 26.4062V48H118.375V26.4062C118.375 24.8438 118.167 23.6562 117.75 22.8438C117.354 22.0104 116.771 21.4375 116 21.125C115.25 20.7917 114.354 20.625 113.312 20.625C112.229 20.625 111.281 20.8438 110.469 21.2812C109.656 21.6979 108.979 22.2812 108.438 23.0312C107.896 23.7812 107.49 24.6562 107.219 25.6562C106.948 26.6354 106.812 27.7083 106.812 28.875ZM134.375 0H143.375V40.25L142.469 48H134.375V0ZM164.781 30.75V31.4062C164.781 33.9271 164.51 36.2396 163.969 38.3438C163.448 40.4479 162.635 42.2708 161.531 43.8125C160.427 45.3333 159.052 46.5208 157.406 47.375C155.781 48.2083 153.865 48.625 151.656 48.625C149.594 48.625 147.802 48.2083 146.281 47.375C144.781 46.5417 143.521 45.3646 142.5 43.8438C141.479 42.3229 140.656 40.5417 140.031 38.5C139.406 36.4583 138.938 34.2292 138.625 31.8125V30.375C138.938 27.9583 139.406 25.7292 140.031 23.6875C140.656 21.6458 141.479 19.8646 142.5 18.3438C143.521 16.8229 144.781 15.6458 146.281 14.8125C147.781 13.9792 149.552 13.5625 151.594 13.5625C153.823 13.5625 155.76 13.9896 157.406 14.8438C159.073 15.6771 160.448 16.8646 161.531 18.4062C162.635 19.9271 163.448 21.7396 163.969 23.8438C164.51 25.9271 164.781 28.2292 164.781 30.75ZM155.781 31.4062V30.75C155.781 29.375 155.677 28.0833 155.469 26.875C155.281 25.6458 154.948 24.5729 154.469 23.6562C153.99 22.7188 153.333 21.9792 152.5 21.4375C151.688 20.8958 150.635 20.625 149.344 20.625C148.115 20.625 147.073 20.8333 146.219 21.25C145.365 21.6667 144.656 22.25 144.094 23C143.552 23.75 143.146 24.6458 142.875 25.6875C142.604 26.7083 142.438 27.8333 142.375 29.0625V33.1562C142.438 34.8021 142.708 36.2604 143.188 37.5312C143.688 38.7812 144.438 39.7708 145.438 40.5C146.458 41.2083 147.781 41.5625 149.406 41.5625C150.677 41.5625 151.729 41.3125 152.562 40.8125C153.396 40.3125 154.042 39.6042 154.5 38.6875C154.979 37.7708 155.312 36.6979 155.5 35.4688C155.688 34.2188 155.781 32.8646 155.781 31.4062ZM190.375 39.9062V14.1875H199.375V48H190.906L190.375 39.9062ZM191.375 32.9688L194.031 32.9062C194.031 35.1562 193.771 37.25 193.25 39.1875C192.729 41.1042 191.948 42.7708 190.906 44.1875C189.865 45.5833 188.552 46.6771 186.969 47.4688C185.385 48.2396 183.521 48.625 181.375 48.625C179.729 48.625 178.208 48.3958 176.812 47.9375C175.438 47.4583 174.25 46.7188 173.25 45.7188C172.271 44.6979 171.5 43.3958 170.938 41.8125C170.396 40.2083 170.125 38.2812 170.125 36.0312V14.1875H179.125V36.0938C179.125 37.0938 179.24 37.9375 179.469 38.625C179.719 39.3125 180.062 39.875 180.5 40.3125C180.938 40.75 181.448 41.0625 182.031 41.25C182.635 41.4375 183.302 41.5312 184.031 41.5312C185.885 41.5312 187.344 41.1562 188.406 40.4062C189.49 39.6562 190.25 38.6354 190.688 37.3438C191.146 36.0312 191.375 34.5729 191.375 32.9688ZM215.25 21.5625V48H206.25V14.1875H214.719L215.25 21.5625ZM225.438 13.9688L225.281 22.3125C224.844 22.25 224.312 22.1979 223.688 22.1562C223.083 22.0938 222.531 22.0625 222.031 22.0625C220.76 22.0625 219.656 22.2292 218.719 22.5625C217.802 22.875 217.031 23.3438 216.406 23.9688C215.802 24.5938 215.344 25.3542 215.031 26.25C214.74 27.1458 214.573 28.1667 214.531 29.3125L212.719 28.75C212.719 26.5625 212.938 24.5521 213.375 22.7188C213.812 20.8646 214.448 19.25 215.281 17.875C216.135 16.5 217.177 15.4375 218.406 14.6875C219.635 13.9375 221.042 13.5625 222.625 13.5625C223.125 13.5625 223.635 13.6042 224.156 13.6875C224.677 13.75 225.104 13.8438 225.438 13.9688ZM250.469 14.1875H258.625V46.875C258.625 49.9583 257.938 52.5729 256.562 54.7188C255.208 56.8854 253.312 58.5208 250.875 59.625C248.438 60.75 245.604 61.3125 242.375 61.3125C240.958 61.3125 239.458 61.125 237.875 60.75C236.312 60.375 234.812 59.7917 233.375 59C231.958 58.2083 230.771 57.2083 229.812 56L233.781 50.6875C234.823 51.8958 236.031 52.8333 237.406 53.5C238.781 54.1875 240.302 54.5312 241.969 54.5312C243.594 54.5312 244.969 54.2292 246.094 53.625C247.219 53.0417 248.083 52.1771 248.688 51.0312C249.292 49.9062 249.594 48.5417 249.594 46.9375V22L250.469 14.1875ZM227.719 31.5V30.8438C227.719 28.2604 228.031 25.9167 228.656 23.8125C229.302 21.6875 230.208 19.8646 231.375 18.3438C232.562 16.8229 234 15.6458 235.688 14.8125C237.375 13.9792 239.281 13.5625 241.406 13.5625C243.656 13.5625 245.542 13.9792 247.062 14.8125C248.583 15.6458 249.833 16.8333 250.812 18.375C251.792 19.8958 252.552 21.6979 253.094 23.7812C253.656 25.8438 254.094 28.1042 254.406 30.5625V32C254.094 34.3542 253.625 36.5417 253 38.5625C252.375 40.5833 251.552 42.3542 250.531 43.875C249.51 45.375 248.24 46.5417 246.719 47.375C245.219 48.2083 243.427 48.625 241.344 48.625C239.26 48.625 237.375 48.1979 235.688 47.3438C234.021 46.4896 232.594 45.2917 231.406 43.75C230.219 42.2083 229.302 40.3958 228.656 38.3125C228.031 36.2292 227.719 33.9583 227.719 31.5ZM236.719 30.8438V31.5C236.719 32.8958 236.854 34.1979 237.125 35.4062C237.396 36.6146 237.812 37.6875 238.375 38.625C238.958 39.5417 239.677 40.2604 240.531 40.7812C241.406 41.2812 242.438 41.5312 243.625 41.5312C245.271 41.5312 246.615 41.1875 247.656 40.5C248.698 39.7917 249.479 38.8229 250 37.5938C250.521 36.3646 250.823 34.9479 250.906 33.3438V29.25C250.865 27.9375 250.688 26.7604 250.375 25.7188C250.062 24.6562 249.625 23.75 249.062 23C248.5 22.25 247.771 21.6667 246.875 21.25C245.979 20.8333 244.917 20.625 243.688 20.625C242.5 20.625 241.469 20.8958 240.594 21.4375C239.74 21.9583 239.021 22.6771 238.438 23.5938C237.875 24.5104 237.448 25.5938 237.156 26.8438C236.865 28.0729 236.719 29.4062 236.719 30.8438ZM281.188 48.625C278.562 48.625 276.208 48.2083 274.125 47.375C272.042 46.5208 270.271 45.3438 268.812 43.8438C267.375 42.3438 266.271 40.6042 265.5 38.625C264.729 36.625 264.344 34.5 264.344 32.25V31C264.344 28.4375 264.708 26.0938 265.438 23.9688C266.167 21.8438 267.208 20 268.562 18.4375C269.938 16.875 271.604 15.6771 273.562 14.8438C275.521 13.9896 277.729 13.5625 280.188 13.5625C282.583 13.5625 284.708 13.9583 286.562 14.75C288.417 15.5417 289.969 16.6667 291.219 18.125C292.49 19.5833 293.448 21.3333 294.094 23.375C294.74 25.3958 295.062 27.6458 295.062 30.125V33.875H268.188V27.875H286.219V27.1875C286.219 25.9375 285.99 24.8229 285.531 23.8438C285.094 22.8438 284.427 22.0521 283.531 21.4688C282.635 20.8854 281.49 20.5938 280.094 20.5938C278.906 20.5938 277.885 20.8542 277.031 21.375C276.177 21.8958 275.479 22.625 274.938 23.5625C274.417 24.5 274.021 25.6042 273.75 26.875C273.5 28.125 273.375 29.5 273.375 31V32.25C273.375 33.6042 273.562 34.8542 273.938 36C274.333 37.1458 274.885 38.1354 275.594 38.9688C276.323 39.8021 277.198 40.4479 278.219 40.9062C279.26 41.3646 280.438 41.5938 281.75 41.5938C283.375 41.5938 284.885 41.2812 286.281 40.6562C287.698 40.0104 288.917 39.0417 289.938 37.75L294.312 42.5C293.604 43.5208 292.635 44.5 291.406 45.4375C290.198 46.375 288.74 47.1458 287.031 47.75C285.323 48.3333 283.375 48.625 281.188 48.625ZM309.188 21.5625V48H300.188V14.1875H308.656L309.188 21.5625ZM319.375 13.9688L319.219 22.3125C318.781 22.25 318.25 22.1979 317.625 22.1562C317.021 22.0938 316.469 22.0625 315.969 22.0625C314.698 22.0625 313.594 22.2292 312.656 22.5625C311.74 22.875 310.969 23.3438 310.344 23.9688C309.74 24.5938 309.281 25.3542 308.969 26.25C308.677 27.1458 308.51 28.1667 308.469 29.3125L306.656 28.75C306.656 26.5625 306.875 24.5521 307.312 22.7188C307.75 20.8646 308.385 19.25 309.219 17.875C310.073 16.5 311.115 15.4375 312.344 14.6875C313.573 13.9375 314.979 13.5625 316.562 13.5625C317.062 13.5625 317.573 13.6042 318.094 13.6875C318.615 13.75 319.042 13.8438 319.375 13.9688Z" fill="#707070"/>
</svg>
